<svg xmlns="http://www.w3.org/2000/svg" width="31" height="26"><path d="M29.5 4.3h-8.6V1.9A2 2 0 0019 0h-7a2 2 0 00-2 2v2.3H1.7A1.6 1.6 0 000 5.8v18.6A1.6 1.6 0 001.6 26h27.9a1.6 1.6 0 001.5-1.6V5.8a1.6 1.6 0 00-1.5-1.5zM10.9 1.9A1.2 1.2 0 0112 .8h7a1.2 1.2 0 011.2 1.1v2.4h-9.3zM1.6 5h27.9a.8.8 0 01.8.8v7h-12v-1.6h-5.5v1.6H.8v-7a.8.8 0 01.8-.8zm15.9 7v2.7a.8.8 0 01-.8.8h-2.3a.8.8 0 01-.8-.8V12zm12 13.2h-28a.8.8 0 01-.7-.8V13.6h12v1.1a1.6 1.6 0 001.6 1.6h2.3a1.6 1.6 0 001.5-1.6v-1.1h12v10.8a.8.8 0 01-.7.8z" fill="#06bee1"/></svg>