<svg xmlns="http://www.w3.org/2000/svg" width="75.8" height="46"><defs><style>.a{fill:#06bee1}</style></defs><path class="a" d="M18 18a9 9 0 10-9-9 9 9 0 009 9zm0-16a7 7 0 11-7 7 7 7 0 017-7zM57.8 18a9 9 0 10-9-9 9 9 0 009 9zm0-16a7 7 0 11-7 7 7 7 0 017-7z"/><path class="a" d="M73.7 22.5a22.3 22.3 0 00-8.7-4.1 28.2 28.2 0 00-7.2-1.2 23.2 23.2 0 00-7.3 1.2 23.2 23.2 0 00-4.8 1.8 11.9 11.9 0 01-.3 2.4 22.8 22.8 0 015.7-2.3 21.7 21.7 0 016.7-1 26.5 26.5 0 016.7 1 20.2 20.2 0 018 3.8 3 3 0 011.3 2.6v7.5h2v-7.5a5 5 0 00-2.1-4.2zM30.3 22.5A11.9 11.9 0 0130 20a25.9 25.9 0 00-4.8-1.7 28.2 28.2 0 00-7.2-1.2 23.2 23.2 0 00-7.2 1.2A27 27 0 002 22.6 5.3 5.3 0 000 26.7v7.5h2v-7.5a3.3 3.3 0 011.3-2.6 25 25 0 018-3.8 21.7 21.7 0 016.7-1 26.5 26.5 0 016.7 1 22.7 22.7 0 015.6 2.2zM53.8 34.3a22.3 22.3 0 00-8.7-4.1A28.3 28.3 0 0038 29a23.2 23.2 0 00-7.3 1.2 26.9 26.9 0 00-8.7 4.1 5.3 5.3 0 00-2 4.2V46h2v-7.5a3.3 3.3 0 011.2-2.6 25 25 0 018.1-3.8 21.7 21.7 0 016.7-1.1 26.4 26.4 0 016.7 1.1 20.2 20.2 0 018 3.8 3 3 0 011.3 2.6V46h2v-7.5a5 5 0 00-2.1-4.2z"/><path class="a" d="M37.9 29.7a9 9 0 10-9-9 9 9 0 009 9zm0-16a7 7 0 11-7 7 7 7 0 017-7z"/></svg>