<svg xmlns="http://www.w3.org/2000/svg" width="32" height="19.5"><g fill="#ef233c"><path d="M14.1 12.3c.3 0 .5.1.2.4l-1 1a3.7 3.7 0 002.7 1 3.8 3.8 0 003.8-3.2.6.6 0 011.2.1v.2a5 5 0 01-5 4.2 5.2 5.2 0 01-3.6-1.4l-1 1c-.2.2-.4 0-.4-.2v-2.8a.3.3 0 01.3-.4zM18 9.7c-.3 0-.5-.1-.2-.4l1-1a3.7 3.7 0 00-2.7-1 3.8 3.8 0 00-3.8 3.2.6.6 0 01-.6.5.6.6 0 01-.6-.6v-.2A5 5 0 0116 6a5.2 5.2 0 013.6 1.4l1-1c.2-.2.4 0 .4.2v2.8a.3.3 0 01-.3.4z" fill-rule="evenodd"/><path d="M27.3 8.7a6.5 6.5 0 00-2.6-4.3 6.5 6.5 0 00-5-1A7.5 7.5 0 0013.7 0a7.1 7.1 0 00-1.7.2 7.6 7.6 0 00-5.7 6.3 6.5 6.5 0 00-5 2.5 6.8 6.8 0 00-.6 6.7A6.4 6.4 0 006 19.4H26.7a5.4 5.4 0 00.6-10.7zm4 5.6a4.8 4.8 0 01-4.6 4.5H6.1a5.7 5.7 0 01-4.8-3.4 6 6 0 01.5-6 5.9 5.9 0 014.5-2.2h.6v-.6A7 7 0 0112 .9a7.4 7.4 0 011.6-.2 6.6 6.6 0 015.6 3l.2.4h.5a5.7 5.7 0 014.4.9 5.8 5.8 0 012.3 3.8v.5h.6a4.8 4.8 0 014.1 5z"/></g></svg>